<svg width="363" height="234" viewBox="0 0 363 234" fill="none" xmlns="http://www.w3.org/2000/svg">
<path d="M113 57.5L140 20.5L160.5 31.5L208 8.5L232 37L287 0L294 31.5L362.5 0L315.5 114L337 125.5V175.5L315.5 181.5L284.5 224.5L108 175.5L113 57.5Z" fill="#76EBCF" fill-opacity="0.15"/>
<rect x="70" y="53" width="223" height="181" fill="#76EBCF"/>
<rect x="206" y="157" width="35" height="32" fill="white"/>
<rect x="164" y="157" width="35" height="32" fill="white"/>
<rect x="122" y="157" width="35" height="32" fill="white"/>
<rect x="80" y="157" width="35" height="32" fill="white"/>
<rect x="206" y="115" width="35" height="32" fill="white"/>
<rect x="164" y="115" width="35" height="32" fill="white"/>
<rect x="122" y="115" width="35" height="32" fill="white"/>
<rect x="206" y="73" width="35" height="32" fill="white"/>
<rect x="164" y="73" width="35" height="32" fill="white"/>
<rect x="248" y="73" width="35" height="32" fill="#58CEB2"/>
<path d="M263.778 91.7244V91.5398C263.783 90.6828 263.864 90.0009 264.02 89.4943C264.181 88.9877 264.408 88.5805 264.702 88.2727C264.995 87.9602 265.353 87.6738 265.774 87.4134C266.063 87.2334 266.321 87.0369 266.548 86.8239C266.78 86.6061 266.963 86.3646 267.095 86.0994C267.228 85.8295 267.294 85.5289 267.294 85.1974C267.294 84.8234 267.206 84.4991 267.031 84.2244C266.856 83.9498 266.619 83.7367 266.321 83.5852C266.027 83.4337 265.698 83.358 265.334 83.358C264.998 83.358 264.678 83.4313 264.375 83.5781C264.077 83.7202 263.828 83.938 263.629 84.2315C263.435 84.5204 263.326 84.8873 263.303 85.3324H260.774C260.798 84.4328 261.016 83.6799 261.428 83.0739C261.844 82.4678 262.393 82.0133 263.075 81.7102C263.762 81.4072 264.519 81.2557 265.348 81.2557C266.252 81.2557 267.048 81.4143 267.734 81.7315C268.426 82.0488 268.963 82.5009 269.347 83.0881C269.735 83.6705 269.929 84.3617 269.929 85.1619C269.929 85.7017 269.841 86.1847 269.666 86.6108C269.496 87.0369 269.252 87.4157 268.935 87.7472C268.617 88.0786 268.241 88.3745 267.805 88.6349C267.422 88.8717 267.107 89.1179 266.861 89.3736C266.619 89.6293 266.439 89.9299 266.321 90.2756C266.207 90.6165 266.148 91.0379 266.143 91.5398V91.7244H263.778ZM265.014 96.1562C264.588 96.1562 264.221 96.0047 263.913 95.7017C263.606 95.3987 263.452 95.0294 263.452 94.5938C263.452 94.1676 263.606 93.803 263.913 93.5C264.221 93.197 264.588 93.0455 265.014 93.0455C265.436 93.0455 265.8 93.197 266.108 93.5C266.42 93.803 266.577 94.1676 266.577 94.5938C266.577 94.8826 266.503 95.1454 266.357 95.3821C266.214 95.6188 266.025 95.8082 265.788 95.9503C265.556 96.0876 265.298 96.1562 265.014 96.1562Z" fill="white"/>
<rect x="248" y="115" width="35" height="32" fill="#58CEB2"/>
<path d="M263.778 133.724V133.54C263.783 132.683 263.864 132.001 264.02 131.494C264.181 130.988 264.408 130.58 264.702 130.273C264.995 129.96 265.353 129.674 265.774 129.413C266.063 129.233 266.321 129.037 266.548 128.824C266.78 128.606 266.963 128.365 267.095 128.099C267.228 127.83 267.294 127.529 267.294 127.197C267.294 126.823 267.206 126.499 267.031 126.224C266.856 125.95 266.619 125.737 266.321 125.585C266.027 125.434 265.698 125.358 265.334 125.358C264.998 125.358 264.678 125.431 264.375 125.578C264.077 125.72 263.828 125.938 263.629 126.232C263.435 126.52 263.326 126.887 263.303 127.332H260.774C260.798 126.433 261.016 125.68 261.428 125.074C261.844 124.468 262.393 124.013 263.075 123.71C263.762 123.407 264.519 123.256 265.348 123.256C266.252 123.256 267.048 123.414 267.734 123.732C268.426 124.049 268.963 124.501 269.347 125.088C269.735 125.67 269.929 126.362 269.929 127.162C269.929 127.702 269.841 128.185 269.666 128.611C269.496 129.037 269.252 129.416 268.935 129.747C268.617 130.079 268.241 130.375 267.805 130.635C267.422 130.872 267.107 131.118 266.861 131.374C266.619 131.629 266.439 131.93 266.321 132.276C266.207 132.616 266.148 133.038 266.143 133.54V133.724H263.778ZM265.014 138.156C264.588 138.156 264.221 138.005 263.913 137.702C263.606 137.399 263.452 137.029 263.452 136.594C263.452 136.168 263.606 135.803 263.913 135.5C264.221 135.197 264.588 135.045 265.014 135.045C265.436 135.045 265.8 135.197 266.108 135.5C266.42 135.803 266.577 136.168 266.577 136.594C266.577 136.883 266.503 137.145 266.357 137.382C266.214 137.619 266.025 137.808 265.788 137.95C265.556 138.088 265.298 138.156 265.014 138.156Z" fill="white"/>
<rect x="248" y="157" width="35" height="32" fill="#58CEB2"/>
<path d="M263.778 175.724V175.54C263.783 174.683 263.864 174.001 264.02 173.494C264.181 172.988 264.408 172.58 264.702 172.273C264.995 171.96 265.353 171.674 265.774 171.413C266.063 171.233 266.321 171.037 266.548 170.824C266.78 170.606 266.963 170.365 267.095 170.099C267.228 169.83 267.294 169.529 267.294 169.197C267.294 168.823 267.206 168.499 267.031 168.224C266.856 167.95 266.619 167.737 266.321 167.585C266.027 167.434 265.698 167.358 265.334 167.358C264.998 167.358 264.678 167.431 264.375 167.578C264.077 167.72 263.828 167.938 263.629 168.232C263.435 168.52 263.326 168.887 263.303 169.332H260.774C260.798 168.433 261.016 167.68 261.428 167.074C261.844 166.468 262.393 166.013 263.075 165.71C263.762 165.407 264.519 165.256 265.348 165.256C266.252 165.256 267.048 165.414 267.734 165.732C268.426 166.049 268.963 166.501 269.347 167.088C269.735 167.67 269.929 168.362 269.929 169.162C269.929 169.702 269.841 170.185 269.666 170.611C269.496 171.037 269.252 171.416 268.935 171.747C268.617 172.079 268.241 172.375 267.805 172.635C267.422 172.872 267.107 173.118 266.861 173.374C266.619 173.629 266.439 173.93 266.321 174.276C266.207 174.616 266.148 175.038 266.143 175.54V175.724H263.778ZM265.014 180.156C264.588 180.156 264.221 180.005 263.913 179.702C263.606 179.399 263.452 179.029 263.452 178.594C263.452 178.168 263.606 177.803 263.913 177.5C264.221 177.197 264.588 177.045 265.014 177.045C265.436 177.045 265.8 177.197 266.108 177.5C266.42 177.803 266.577 178.168 266.577 178.594C266.577 178.883 266.503 179.145 266.357 179.382C266.214 179.619 266.025 179.808 265.788 179.95C265.556 180.088 265.298 180.156 265.014 180.156Z" fill="white"/>
</svg>
