<svg width="332" height="241" viewBox="0 0 332 241" fill="none" xmlns="http://www.w3.org/2000/svg">
<path d="M71.6227 239L15.2641 203.741L35.2249 192.77L0 117.543L35.2249 122.637L23.4833 59.5551L43.0526 53.2861L48.1407 26.6431L93.5416 35.6547L126.418 0L166.519 51.4936L206.621 102.987L71.6227 239Z" fill="#9A76EB" fill-opacity="0.15"/>
<path d="M166.519 51.4936L206.621 102.987L214 87.3436L188.389 51.4936H166.519Z" fill="#9A76EB" fill-opacity="0.15"/>
<path d="M56 78V240H246.5V78H56Z" fill="#9A76EB"/>
<path d="M56 78H246.5L274.5 58H82.5L56 78Z" fill="white"/>
<path d="M246.5 78V240L274.5 217.5V58L246.5 78Z" fill="white"/>
<path d="M56 78V240H246.5M56 78H246.5M56 78L82.5 58H274.5M246.5 78V240M246.5 78L274.5 58M246.5 240L274.5 217.5V58" stroke="#9A76EB"/>
<path d="M118.696 182.768C115.027 182.768 111.741 181.872 108.84 180.08C105.939 178.245 103.656 175.6 101.992 172.144C100.328 168.688 99.496 164.507 99.496 159.6C99.496 154.693 100.328 150.512 101.992 147.056C103.656 143.6 105.939 140.976 108.84 139.184C111.741 137.349 115.027 136.432 118.696 136.432C122.408 136.432 125.693 137.349 128.552 139.184C131.453 140.976 133.736 143.6 135.4 147.056C137.064 150.512 137.896 154.693 137.896 159.6C137.896 164.507 137.064 168.688 135.4 172.144C133.736 175.6 131.453 178.245 128.552 180.08C125.693 181.872 122.408 182.768 118.696 182.768ZM118.696 174C120.445 174 121.96 173.509 123.24 172.528C124.563 171.547 125.587 169.989 126.312 167.856C127.08 165.723 127.464 162.971 127.464 159.6C127.464 156.229 127.08 153.477 126.312 151.344C125.587 149.211 124.563 147.653 123.24 146.672C121.96 145.691 120.445 145.2 118.696 145.2C116.989 145.2 115.475 145.691 114.152 146.672C112.872 147.653 111.848 149.211 111.08 151.344C110.355 153.477 109.992 156.229 109.992 159.6C109.992 162.971 110.355 165.723 111.08 167.856C111.848 169.989 112.872 171.547 114.152 172.528C115.475 173.509 116.989 174 118.696 174ZM137.076 188.4L158.196 128.112H167.092L145.972 188.4H137.076ZM184.696 182.768C181.027 182.768 177.741 181.872 174.84 180.08C171.939 178.245 169.656 175.6 167.992 172.144C166.328 168.688 165.496 164.507 165.496 159.6C165.496 154.693 166.328 150.512 167.992 147.056C169.656 143.6 171.939 140.976 174.84 139.184C177.741 137.349 181.027 136.432 184.696 136.432C188.408 136.432 191.693 137.349 194.552 139.184C197.453 140.976 199.736 143.6 201.4 147.056C203.064 150.512 203.896 154.693 203.896 159.6C203.896 164.507 203.064 168.688 201.4 172.144C199.736 175.6 197.453 178.245 194.552 180.08C191.693 181.872 188.408 182.768 184.696 182.768ZM184.696 174C186.445 174 187.96 173.509 189.24 172.528C190.563 171.547 191.587 169.989 192.312 167.856C193.08 165.723 193.464 162.971 193.464 159.6C193.464 156.229 193.08 153.477 192.312 151.344C191.587 149.211 190.563 147.653 189.24 146.672C187.96 145.691 186.445 145.2 184.696 145.2C182.989 145.2 181.475 145.691 180.152 146.672C178.872 147.653 177.848 149.211 177.08 151.344C176.355 153.477 175.992 156.229 175.992 159.6C175.992 162.971 176.355 165.723 177.08 167.856C177.848 169.989 178.872 171.547 180.152 172.528C181.475 173.509 182.989 174 184.696 174Z" fill="white"/>
</svg>
